<svg width="28" height="28" viewBox="0 0 28 28" fill="none" xmlns="http://www.w3.org/2000/svg">
<rect x="4.66669" y="5.83333" width="18.6667" height="3.5" rx="1.5" fill="#FA7659"/>
<path opacity="0.8" fill-rule="evenodd" clip-rule="evenodd" d="M6.16669 11.6667C5.33826 11.6667 4.66669 12.3382 4.66669 13.1667V13.6667C4.66669 14.4951 5.33826 15.1667 6.16669 15.1667H21.8334C22.6618 15.1667 23.3334 14.4951 23.3334 13.6667V13.1667C23.3334 12.3382 22.6618 11.6667 21.8334 11.6667H6.16669ZM6.16668 17.5C5.33826 17.5 4.66668 18.1716 4.66668 19V19.5C4.66668 20.3284 5.33826 21 6.16668 21H21.8334C22.6618 21 23.3334 20.3284 23.3334 19.5V19C23.3334 18.1716 22.6618 17.5 21.8334 17.5H6.16668Z" fill="#FA7659"/>
</svg>
