<svg width="24" height="25" viewBox="0 0 24 25" fill="none" xmlns="http://www.w3.org/2000/svg">
<path d="M16.8 22.0998H19.2C20.5255 22.0998 21.6 21.0252 21.6 19.6998V14.2998M16.8 22.0998L11.85 15.4998M16.8 22.0998H4.80002C3.47454 22.0998 2.40002 21.0252 2.40002 19.6998V19.0998M21.6 14.2998V5.29976C21.6 3.97427 20.5255 2.89976 19.2 2.89976H4.80002C3.47454 2.89976 2.40002 3.97427 2.40002 5.29976V19.0998M21.6 14.2998L17.7338 10.4335C17.2332 9.93291 16.4102 9.97228 15.9596 10.5184L11.85 15.4998M2.40002 19.0998L8.62377 13.3947C9.14668 12.9153 9.96902 12.9918 10.3946 13.5592L11.85 15.4998" stroke="#FA7659" stroke-width="0.96"/>
<path d="M16.8 22.0998H19.2C20.5255 22.0998 21.6 21.0252 21.6 19.6998V14.2998M16.8 22.0998L11.85 15.4998M16.8 22.0998H4.80002C3.47454 22.0998 2.40002 21.0252 2.40002 19.6998V19.0998M21.6 14.2998V5.29976C21.6 3.97427 20.5255 2.89976 19.2 2.89976H4.80002C3.47454 2.89976 2.40002 3.97427 2.40002 5.29976V19.0998M21.6 14.2998L17.7338 10.4335C17.2332 9.93291 16.4102 9.97228 15.9596 10.5184L11.85 15.4998M2.40002 19.0998L8.62377 13.3947C9.14668 12.9153 9.96902 12.9918 10.3946 13.5592L11.85 15.4998" stroke="#FA7659" stroke-width="0.96"/>
<path d="M10.92 8.29973C10.92 9.02875 10.329 9.61973 9.59999 9.61973C8.87097 9.61973 8.27999 9.02875 8.27999 8.29973C8.27999 7.57072 8.87097 6.97973 9.59999 6.97973C10.329 6.97973 10.92 7.57072 10.92 8.29973Z" fill="#FA7659" stroke="#FA7659" stroke-width="0.96"/>
<path d="M10.92 8.29973C10.92 9.02875 10.329 9.61973 9.59999 9.61973C8.87097 9.61973 8.27999 9.02875 8.27999 8.29973C8.27999 7.57072 8.87097 6.97973 9.59999 6.97973C10.329 6.97973 10.92 7.57072 10.92 8.29973Z" fill="#FA7659" stroke="#FA7659" stroke-width="0.96"/>
</svg>
