<svg width="24" height="25" viewBox="0 0 24 25" fill="none" xmlns="http://www.w3.org/2000/svg">
<path d="M9.0732 19.1144H5.59028C5.04069 19.1144 4.59515 18.6689 4.59515 18.1193V6.42659M20.0195 6.42659V4.18756C20.0195 3.63797 19.574 3.19244 19.0244 3.19244H16.0391M20.0195 6.42659V9.66073M20.0195 6.42659H4.59515M4.59515 6.42659V4.18756C4.59515 3.63797 5.04069 3.19244 5.59028 3.19244H8.07808M8.07808 3.19244V1.69976M8.07808 3.19244V4.68512M8.07808 3.19244H16.0391M16.0391 3.19244V1.69976M16.0391 3.19244V4.68512M15.5415 13.1437V16.129L18.0293 17.6217M21.5122 16.129C21.5122 19.4266 18.839 22.0998 15.5415 22.0998C12.244 22.0998 9.57076 19.4266 9.57076 16.129C9.57076 12.8315 12.244 10.1583 15.5415 10.1583C18.839 10.1583 21.5122 12.8315 21.5122 16.129Z" stroke="#FA7659" stroke-width="0.96" stroke-linecap="round"/>
</svg>
