<svg width="25" height="25" viewBox="0 0 25 25" fill="none" xmlns="http://www.w3.org/2000/svg">
<path d="M7.75711 14.5569C9.69996 18.4426 16.0142 18.4426 17.9571 14.5569M23.3 13.0998C23.3 18.7331 18.7333 23.2998 13.1 23.2998C7.46666 23.2998 2.89996 18.7331 2.89996 13.0998C2.89996 7.46645 7.46666 2.89976 13.1 2.89976C18.7333 2.89976 23.3 7.46645 23.3 13.0998ZM11.6428 10.1855C11.6428 10.9902 10.9904 11.6426 10.1857 11.6426C9.38092 11.6426 8.72853 10.9902 8.72853 10.1855C8.72853 9.38071 9.38092 8.72833 10.1857 8.72833C10.9904 8.72833 11.6428 9.38071 11.6428 10.1855ZM17.4714 10.1855C17.4714 10.9902 16.819 11.6426 16.0142 11.6426C15.2095 11.6426 14.5571 10.9902 14.5571 10.1855C14.5571 9.38071 15.2095 8.72833 16.0142 8.72833C16.819 8.72833 17.4714 9.38071 17.4714 10.1855Z" stroke="#FA7659" stroke-width="0.96" stroke-linecap="round"/>
</svg>
