<svg width="21" height="21" viewBox="0 0 21 21" fill="none" xmlns="http://www.w3.org/2000/svg">
<path d="M7.07891 10.4998H9.09996V13.5314H7.07891C5.40462 13.5314 4.04733 12.1741 4.04733 10.4998C4.04733 8.82548 5.40462 7.4682 7.07891 7.4682H9.09996V7.93723M11.5 14.0366V6.99906M17.5631 7.4682H14.0263V10.4998M14.0263 14.0366V10.4998M14.0263 10.4998H16.0473M2.92102 20.0998H18.0789C19.1951 20.0998 20.1 19.1949 20.1 18.0787V2.92081C20.1 1.80461 19.1951 0.899757 18.0789 0.899757H2.92102C1.80482 0.899757 0.899963 1.80461 0.899963 2.92081V18.0787C0.899963 19.1949 1.80482 20.0998 2.92102 20.0998Z" stroke="#FA7659" stroke-width="0.96"/>
</svg>
