<svg width="24" height="25" viewBox="0 0 24 25" fill="none" xmlns="http://www.w3.org/2000/svg">
<g clip-path="url(#clip0_952_1184)">
<path d="M4.99994 8.49976V5.49976M4.99994 2.49976V5.49976M4.99994 5.49976H7.99994H1.99994M7.99994 17.9998V20.2498M7.99994 22.4998V20.2498M7.99994 20.2498H10.4999H5.49994M12.4068 9.53557L6.46597 11.8205C6.29755 11.8853 6.29427 12.1224 6.46084 12.1918L11.9183 14.4657C11.9703 14.4874 12.0107 14.53 12.0297 14.5831L14.3116 20.9724C14.3748 21.1494 14.6251 21.1494 14.6883 20.9724L16.9702 14.5831C16.9891 14.53 17.0296 14.4874 17.0816 14.4657L22.5569 12.1844C22.721 12.116 22.721 11.8835 22.5569 11.8151L17.0816 9.53378C17.0296 9.51211 16.9891 9.4695 16.9702 9.41644L14.7095 3.08641C14.6441 2.90328 14.3822 2.91175 14.3288 3.09873L12.5273 9.40384C12.5101 9.46424 12.4655 9.51302 12.4068 9.53557Z" stroke="#FA7659" stroke-linecap="round" stroke-linejoin="round"/>
</g>
<defs>
<clipPath id="clip0_952_1184">
<rect width="24" height="24" fill="white" transform="translate(-6.10352e-05 0.499756)"/>
</clipPath>
</defs>
</svg>
